# xmcd
#
# Track frame offsets:
#	150
#	11988
#	24267
#	37764
#	50358
#	62206
#	75268
#	85323
#	98258
#	109783
#	122471
#	134536
#	146946
#	159000
#	171216
#	183640
#	196612
#	212721
#	225315
#	236618
#	247147
#	261363
#	274185
#	285431
#	299982
#	310037
#	322678
#
# Disc length: 4457 seconds
#
# Revision: 1
# Processed by: cddbd v1.5.2PL0 Copyright (c) Steve Scherf et al.
# Submitted via: audiograbber 1.83.01
#
DISCID=7011671b
DTITLE=Various Artist - Stax Singles [CD 5)
DYEAR=1900
DGENRE=
TTITLE0=Various Artist - Carla Thomas \\ Stop! Look What You're Doin'
TTITLE1=Various Artist - Rufus Thomas \\ Willy Nilly
TTITLE2=Various Artist - Mad Lads \\ Don't Have To Shop Around
TTITLE3=Various Artist - William Bell \\ Crying All By Myself
TTITLE4=Various Artist - Sam and Dave \\ I Take What I Want
TTITLE5=Various Artist - Rufus and Carla \\ When You Move You Lose
TTITLE6=Various Artist - Otis Redding \\ Respect
TTITLE7=Various Artist - The Premiers \\ Make It Me
TTITLE8=Various Artist - Rufus Thomas \\ The World Is Round
TTITLE9=Various Artist - The Astors \\ In The Twilight Zone
TTITLE10=Various Artist - Sir Isaac and The Do-Dads \\ Blue Groove
TTITLE11=Various Artist - Sam and Dave \\ You Don't Know Like I Know
TTITLE12=Various Artist - The Mar-Keys \\ Grab This Thing (Part 1)
TTITLE13=Various Artist - Booker T. and The MG's \\ Be My Lady
TTITLE14=Various Artist - Carla Thomas \\ Comfort Me
TTITLE15=Various Artist - Otis Redding \\ I Can't Turn You Loose
TTITLE16=Various Artist - Otis Redding \\ Just One More Day
TTITLE17=Various Artist - Mad Lads \\ I Want Someone
TTITLE18=Various Artist - Rufus and Carla \\ Birds and Bees
TTITLE19=Various Artist - Mar-Keys \\ Philly Dog
TTITLE20=Various Artist - Johnnie Taylor \\ I Had A Dream
TTITLE21=Various Artist - Otis Redding \\ Satisfaction
TTITLE22=Various Artist - Eddie Floyd \\ Things Get Better
TTITLE23=Various Artist - Ruby Johnson \\ I'll Run Your Hurt Away
TTITLE24=Various Artist - Four Shells \\ Hot Dog
TTITLE25=Various Artist - Carla Thomas \\ Let Me Be Good To You
TTITLE26=Various Artist - Sam and Dave \\ Hold On I'm Comin'
EXTD=
EXTT0=
EXTT1=
EXTT2=
EXTT3=
EXTT4=
EXTT5=
EXTT6=
EXTT7=
EXTT8=
EXTT9=
EXTT10=
EXTT11=
EXTT12=
EXTT13=
EXTT14=
EXTT15=
EXTT16=
EXTT17=
EXTT18=
EXTT19=
EXTT20=
EXTT21=
EXTT22=
EXTT23=
EXTT24=
EXTT25=
EXTT26=
PLAYORDER=
